<?xml version="1.0" ?><!DOCTYPE svg  PUBLIC '-//W3C//DTD SVG 1.1//EN'  'http://www.w3.org/Graphics/SVG/1.1/DTD/svg11.dtd'><svg enable-background="new 0 0 512 512" height="512px" id="Layer_1" version="1.1" viewBox="0 0 512 512" width="512px" xml:space="preserve" xmlns="http://www.w3.org/2000/svg" xmlns:xlink="http://www.w3.org/1999/xlink"><g><circle cx="38.405" cy="118.208" fill="#4B4B4B" r="24.028"/><path d="M275.876,113.384l3.425,1.042c-2.31-5.493-3.955-11.664-4.551-18.555l-2.944-34.072l3.978,3.074   c0.04-4.296,0.612-8.781,1.842-13.421c-6.455-0.604-12.988-0.935-19.598-0.935c-71.447,0-134.662,35.857-172.643,90.507h54.089   v1.407c6.763-2.529,14.119-3.857,21.823-3.857c2.321,0,4.671,0.123,6.983,0.364c5.068,0.53,9.9,1.63,14.456,3.232   c21.775-13.888,47.604-21.959,75.291-21.959c7.494,0,14.849,0.602,22.028,1.739L275.876,113.384z" fill="#4B4B4B"/><path d="M209.263,201.681c-1.477-23.692-16.232-45.075-42.542-47.825c-13.973-1.46-31.343,2.439-42.247,18.605   v-16.437H82.326v126.839h42.148v-79.679c7.747-20.538,40.571-22.439,43.576,3.354c0,0.147-0.246,76.227-0.246,76.227h41.361   C209.165,282.764,209.558,201.914,209.263,201.681z" fill="#4B4B4B"/><path d="M247.957,402.289v-1.576c-60.096-4.279-109.848-46.54-125.343-102.851H74.479h-7.153H51.206   c17.62,98.174,103.654,172.909,206.821,172.909c3.65,0,7.275-0.103,10.879-0.289v-68.193H247.957z" fill="#4B4B4B"/><rect fill="#4B4B4B" height="126.839" width="42.148" x="17.331" y="156.024"/><path d="M447.989,170.905c-16.147,18.571-36.785,31.615-59.043,38.956c6.134,15.758,9.514,32.881,9.514,50.783   c0,29.393-9.083,56.701-24.581,79.278l-6.557,62.364h-26.482v51.457c74.803-32.202,127.315-106.625,127.315-193.098   C468.154,228.556,460.906,198.135,447.989,170.905z" fill="#4B4B4B"/><path d="M325.839,489.613h-41.933V387.289h-20.95v-35.263h20.95v-21.172   c0-28.767,11.829-45.873,45.439-45.873h27.98v35.267h-17.49c-13.083,0-13.949,4.928-13.949,14.125l-0.048,17.649h31.684   l-3.707,35.263h-27.976V489.613z" fill="#4B4B4B" id="path3336"/><path d="M342.127,68.101c0.94,0.435,1.898,0.86,2.873,1.276C344.047,68.942,343.087,68.522,342.127,68.101z" fill="#4B4B4B"/><path d="M283.789,185.373c70.862,42.075,180.847,3.137,183.061-108.693c0,0.277,19.561-19.746,19.561-19.746   l-23.252,5.905l17.347-22.514c0,0-22.79,10.057-23.99,9.965c-23.252-28.05-79.72-13.287-72.708,37.646   c-56.838-1.107-85.625-40.598-87.471-43.182c-17.347,32.479,11.626,54.439,11.626,54.439s-10.15,1.661-18.269-4.613   c2.584,29.895,31.74,42.628,31.74,42.628s-6.897,3.622-16.977,0.554c14.763,30.264,39.491,28.419,39.491,28.419   S328.078,187.957,283.789,185.373z" fill="#4B4B4B"/></g></svg>